<?xml version="1.0" standalone="no"?>
<!DOCTYPE svg PUBLIC "-//W3C//DTD SVG 20010904//EN"
 "http://www.w3.org/TR/2001/REC-SVG-20010904/DTD/svg10.dtd">
<svg version="1.0" xmlns="http://www.w3.org/2000/svg"
 width="700.000000pt" height="700.000000pt" viewBox="0 0 700.000000 700.000000"
 preserveAspectRatio="xMidYMid meet">
<metadata>
Created by potrace 1.14, written by Peter Selinger 2001-2017
</metadata>
<g transform="translate(0.000000,700.000000) scale(0.100000,-0.100000)"
fill="#000000" stroke="none">
<path d="M1060 4433 c-22 -59 -85 -271 -95 -321 -19 -92 -44 -252 -44 -277 0
-16 -2 -41 -5 -55 -10 -40 -7 -328 3 -418 29 -240 87 -448 186 -659 41 -87
103 -186 114 -181 7 3 36 34 134 148 17 19 39 45 49 56 19 22 19 22 -24 65
-65 66 -112 171 -153 344 -14 55 -27 118 -30 140 -3 22 -10 63 -15 90 -21 115
-30 391 -16 465 11 54 27 90 41 90 6 0 26 -16 44 -36 104 -113 509 -303 1014
-475 l128 -44 55 60 c31 33 83 88 116 123 33 34 58 62 56 62 -3 0 -25 -7 -49
-16 -64 -23 -214 -21 -312 5 -333 87 -767 378 -1041 697 -34 39 -77 99 -98
133 l-36 62 -22 -58z"/>
<path d="M3209 3911 c-4 -71 -3 -139 3 -152 4 -10 18 -15 38 -14 28 2 30 -1
30 -32 0 -19 -5 -33 -12 -34 -7 0 -26 -2 -42 -2 l-30 -2 -2 -115 c-12 -843
-16 -1159 -19 -1282 l-3 -148 117 0 117 0 0 35 c-1 43 17 51 24 11 l5 -29 105
-1 c126 -2 140 1 135 23 -2 10 1 24 6 32 6 10 9 4 9 -19 l0 -33 123 3 122 3 2
60 c0 33 4 188 8 345 4 157 8 326 10 375 2 50 6 241 10 427 l8 336 -34 -1
c-31 -2 -34 1 -37 31 -3 32 -3 32 42 32 l46 0 0 85 0 85 -115 0 c-102 0 -115
-2 -116 -17 -1 -10 -1 -47 -2 -83 0 -64 0 -65 29 -70 20 -4 29 -11 28 -23 -1
-9 -2 -26 -3 -37 -1 -17 -6 -19 -31 -15 -30 5 -30 5 -31 -42 -1 -27 -3 -91 -4
-143 -2 -52 -6 -216 -10 -365 -4 -148 -9 -317 -10 -375 -2 -58 -4 -158 -4
-222 -1 -112 -2 -118 -21 -118 -24 0 -24 -4 5 755 3 72 8 217 11 323 l5 192
-43 0 c-42 0 -43 1 -42 32 1 31 4 33 41 38 l40 5 0 78 0 77 -114 0 -113 0 0
-85 c0 -83 1 -85 24 -85 46 0 46 -63 0 -68 -16 -2 -32 -7 -35 -10 -4 -4 -10
-119 -13 -257 -6 -241 -13 -494 -21 -790 -2 -77 -4 -159 -4 -182 -1 -29 -5
-43 -14 -43 -10 0 -13 21 -11 93 6 260 17 892 18 1032 l1 160 -25 2 c-14 0
-30 1 -35 2 -6 1 -11 17 -12 36 -1 35 0 35 41 35 l41 0 0 82 0 83 -118 1 c-99
0 -117 -2 -118 -15z"/>
<path d="M4009 3616 c-1 -28 -3 -100 -4 -161 -9 -297 -15 -546 -21 -806 l-6
-285 173 2 c96 1 205 3 243 3 l68 1 67 68 c111 111 174 209 187 292 l7 40 -89
0 -89 0 -40 -72 c-22 -39 -57 -88 -77 -109 l-38 -39 -110 0 -110 0 0 210 0
210 280 0 c217 0 280 3 281 13 0 6 1 50 2 97 l1 85 -259 2 c-143 1 -270 2
-282 3 -23 0 -23 1 -23 145 l0 145 658 0 659 0 10 -23 c10 -22 14 -22 173 -22
142 0 163 2 174 18 9 11 27 17 50 17 30 0 44 -7 70 -35 19 -19 43 -35 55 -35
14 0 25 -9 31 -25 9 -23 14 -24 70 -24 l60 1 0 164 0 164 -47 1 c-27 1 -61 2
-78 3 -34 2 -70 -16 -100 -51 -12 -13 -32 -23 -47 -23 -23 0 -29 6 -38 40
l-11 40 -165 0 c-134 0 -166 -3 -170 -14 -5 -12 -36 -14 -187 -11 -100 2 -425
7 -722 10 -297 4 -555 8 -572 9 l-33 2 -1 -50z"/>
<path d="M1211 3591 c-7 -5 -10 -37 -9 -96 3 -101 -1 -97 117 -109 32 -3 65
-8 72 -10 8 -3 37 -7 64 -10 28 -3 79 -10 115 -15 35 -6 65 -9 66 -8 4 7 25
179 22 182 -4 5 -21 7 -138 24 -145 21 -276 42 -286 45 -6 2 -16 1 -23 -3z"/>
<path d="M2739 3582 c-87 -3 -69 11 -214 -162 -44 -52 -83 -98 -88 -101 -23
-17 -34 -396 -16 -549 30 -244 117 -418 235 -475 43 -20 111 -35 129 -29 7 3
12 24 13 47 1 23 4 59 7 79 6 36 5 37 -69 89 -75 52 -103 84 -145 168 -22 43
-33 122 -19 137 9 8 50 11 303 20 166 6 235 9 255 13 3 1 6 29 6 64 1 34 4
132 8 217 3 85 9 231 12 323 l6 169 -173 -4 c-96 -1 -208 -4 -250 -6z m231
-401 l0 -191 -185 0 -185 0 -1 28 c0 15 -1 76 -1 137 l-1 110 53 47 c57 51 53
50 228 56 l92 3 0 -190z"/>
</g>
</svg>
